<svg xmlns="http://www.w3.org/2000/svg" viewBox="0 0 100 100">
  <rect width="100" height="100" rx="20" fill="#FF8C42"/>
  <path d="M50 20 C50 20 35 35 35 50 C35 60 42 68 50 68 C58 68 65 60 65 50 C65 35 50 20 50 20Z" fill="#FFF9F2"/>
  <path d="M50 35 C50 35 43 43 43 50 C43 54 46 57 50 57 C54 57 57 54 57 50 C57 43 50 35 50 35Z" fill="#FF8C42"/>
  <circle cx="30" cy="70" r="8" fill="#34D399"/>
  <path d="M26 70 L29 73 L34 67" stroke="white" stroke-width="2.5" fill="none" stroke-linecap="round" stroke-linejoin="round"/>
</svg>
